<?xml version="1.0"?>
<svg xmlns="http://www.w3.org/2000/svg" viewBox="0 -63 512.001 512" width="512px" height="512px"><path d="m494.4375 0h-476.875c-9.683594 0-17.5625 7.878906-17.5625 17.5625v314.039062c0 9.683594 7.878906 17.5625 17.5625 17.5625h77.09375v18.898438c0 9.683594 7.875 17.5625 17.558594 17.5625h24.386718c7.277344 0 13.882813-4.578125 16.441407-11.394531l9.398437-25.066407h24.402344c4.140625 0 7.5-3.359374 7.5-7.5 0-4.144531-3.359375-7.5-7.5-7.5h-169.28125c-1.414062 0-2.5625-1.148437-2.5625-2.5625v-314.039062c0-1.414062 1.148438-2.5625 2.5625-2.5625h476.878906c1.410156 0 2.558594 1.148438 2.558594 2.5625v314.039062c0 1.410157-1.148438 2.5625-2.558594 2.5625h-277.285156c-4.140625 0-7.5 3.355469-7.5 7.5 0 4.140626 3.359375 7.5 7.5 7.5h132.40625c.003906.019532.011719.039063.015625.058594l9.378906 25.007813c2.558594 6.816406 9.164063 11.394531 16.441407 11.394531h24.386718c9.683594 0 17.5625-7.875 17.5625-17.558594v-18.902344h77.09375c9.679688 0 17.558594-7.878906 17.558594-17.5625v-314.039062c0-9.683594-7.878906-17.5625-17.5625-17.5625zm-355.441406 368.960938c-.371094.996093-1.335938 1.664062-2.394532 1.664062h-24.386718c-1.410156 0-2.558594-1.148438-2.558594-2.5625v-18.898438h36.765625zm263.351562-.898438c0 1.414062-1.148437 2.5625-2.5625 2.5625h-24.386718c-1.058594 0-2.023438-.667969-2.394532-1.660156l-7.425781-19.800782h36.769531zm0 0" fill="#FFFFFF"/><path d="m366.84375 31.648438c0-4.144532-3.355469-7.5-7.5-7.5h-317.636719c-9.683593 0-17.5625 7.875-17.5625 17.558593v190.449219c0 4.144531 3.359375 7.5 7.5 7.5 4.144531 0 7.5-3.355469 7.5-7.5v-190.449219c0-1.410156 1.152344-2.558593 2.5625-2.558593h317.636719c4.140625 0 7.5-3.359376 7.5-7.5zm0 0" fill="#FFFFFF"/><path d="m24.144531 285.320312c0 9.683594 7.878907 17.5625 17.5625 17.5625h428.585938c9.683593 0 17.5625-7.878906 17.5625-17.5625v-243.613281c0-9.683593-7.878907-17.558593-17.5625-17.558593h-80.636719c-4.144531 0-7.5 3.355468-7.5 7.5 0 4.140624 3.355469 7.5 7.5 7.5h80.636719c1.414062 0 2.5625 1.144531 2.5625 2.558593v243.613281c0 1.414063-1.148438 2.5625-2.5625 2.5625h-428.585938c-1.410156 0-2.5625-1.148437-2.5625-2.5625v-22.851562c0-4.144531-3.355469-7.5-7.5-7.5-4.140625 0-7.5 3.355469-7.5 7.5zm0 0" fill="#FFFFFF"/><path d="m79.984375 105.644531c4.144531 0 7.5-3.355469 7.5-7.5v-24.769531h5.402344c4.144531 0 7.5-3.359375 7.5-7.5 0-4.144531-3.355469-7.5-7.5-7.5h-25.804688c-4.140625 0-7.5 3.355469-7.5 7.5 0 4.140625 3.359375 7.5 7.5 7.5h5.402344v24.769531c0 4.144531 3.359375 7.5 7.5 7.5zm0 0" fill="#FFFFFF"/><path d="m130.324219 62.917969-6.9375 16.191406-6.941407-16.191406c-1.628906-3.804688-6.039062-5.570313-9.847656-3.9375-3.808594 1.632812-5.570312 6.042969-3.9375 9.847656l13.832032 32.273437c1.183593 2.757813 3.894531 4.542969 6.894531 4.542969s5.710937-1.785156 6.894531-4.542969l13.832031-32.273437c1.632813-3.804687-.132812-8.214844-3.9375-9.847656-3.804687-1.632813-8.21875.132812-9.851562 3.9375zm0 0" fill="#FFFFFF"/></svg>
